HIERARCHY
ROOT root
{
	OFFSET	0	13.1	24.9
	CHANNELS 6  Xposition Yposition Zposition Xrotation Yrotation Zrotation
	JOINT spine_1
	{
		OFFSET	0	9.99999	0
		CHANNELS 3  Xrotation Yrotation Zrotation
		JOINT spine_2
		{
			OFFSET	0	112	-10
			CHANNELS 3  Xrotation Yrotation Zrotation
			JOINT spine_3
			{
				OFFSET	0	206.5	19.3
				CHANNELS 3  Xrotation Yrotation Zrotation
				JOINT spine_4
				{
					OFFSET	0	110.4	14.6
					CHANNELS 3  Xrotation Yrotation Zrotation
					JOINT neck_1
					{
						OFFSET	0	71.8	-50.3
						CHANNELS 3  Xrotation Yrotation Zrotation
						JOINT neck_2
						{
							OFFSET	0	86.2	-25.8
							CHANNELS 3  Xrotation Yrotation Zrotation
							JOINT head_ee
							{
								OFFSET	0	179.8	-8.7
								CHANNELS 3  Xrotation Yrotation Zrotation
								End Site
								{
									OFFSET	1	0	0
								}
							}
						}
					}
					JOINT left_clavicle
					{
						OFFSET	-43.2	22.4	-70.8
						CHANNELS 3  Xrotation Yrotation Zrotation
						JOINT left_shoulder
						{
							OFFSET	-93.9	-5.79999	48.7
							CHANNELS 3  Xrotation Yrotation Zrotation
							JOINT left_elbow
							{
								OFFSET	-291.4	-30.8	15.2
								CHANNELS 3  Xrotation Yrotation Zrotation
								JOINT left_lowarm_twist
								{
									OFFSET	-110.7	-3.89999	13.6
									CHANNELS 3  Xrotation Yrotation Zrotation
									JOINT left_hand
									{
										OFFSET	-110.7	-3.89999	13.6
										CHANNELS 3  Xrotation Yrotation Zrotation
										JOINT left_ee
										{
											OFFSET	-80.8	-5.10001	12.1
											CHANNELS 3  Xrotation Yrotation Zrotation
											End Site
											{
												OFFSET	1	0	0
											}
										}
									}
								}
							}
						}
					}
					JOINT right_clavicle
					{
						OFFSET	43.2	22.4	-70.8
						CHANNELS 3  Xrotation Yrotation Zrotation
						JOINT right_shoulder
						{
							OFFSET	93.9	-5.79999	48.7
							CHANNELS 3  Xrotation Yrotation Zrotation
							JOINT right_elbow
							{
								OFFSET	291.4	-30.8	15.2
								CHANNELS 3  Xrotation Yrotation Zrotation
								JOINT right_lowarm_twist
								{
									OFFSET	110.7	-3.89999	13.6
									CHANNELS 3  Xrotation Yrotation Zrotation
									JOINT right_hand
									{
										OFFSET	110.7	-3.89999	13.6
										CHANNELS 3  Xrotation Yrotation Zrotation
										JOINT right_ee
										{
											OFFSET	80.8	-5.10001	12.1
											CHANNELS 3  Xrotation Yrotation Zrotation
											End Site
											{
												OFFSET	1	0	0
											}
										}
									}
								}
							}
						}
					}
				}
			}
		}
	}
	JOINT left_hip
	{
		OFFSET	-82.8	-127.5	0.300001
		CHANNELS 3  Xrotation Yrotation Zrotation
		JOINT left_knee
		{
			OFFSET	-28.2	-396.7	2.2
			CHANNELS 3  Xrotation Yrotation Zrotation
			JOINT left_ankle
			{
				OFFSET	-11.7	-411.3	35.4
				CHANNELS 3  Xrotation Yrotation Zrotation
				JOINT left_toes
				{
					OFFSET	0	-60	-88.6
					CHANNELS 3  Xrotation Yrotation Zrotation
					JOINT left_foot_ee
					{
						OFFSET	-22.5	-16.5	-42.2
						CHANNELS 3  Xrotation Yrotation Zrotation
						End Site
						{
							OFFSET	1	0	0
						}
					}
				}
			}
		}
	}
	JOINT right_hip
	{
		OFFSET	82.8	-127.5	0.300001
		CHANNELS 3  Xrotation Yrotation Zrotation
		JOINT right_knee
		{
			OFFSET	28.2	-396.7	2.2
			CHANNELS 3  Xrotation Yrotation Zrotation
			JOINT right_ankle
			{
				OFFSET	11.7	-411.3	35.4
				CHANNELS 3  Xrotation Yrotation Zrotation
				JOINT right_toes
				{
					OFFSET	0	-60	-88.6
					CHANNELS 3  Xrotation Yrotation Zrotation
					JOINT right_foot_ee
					{
						OFFSET	22.5	-16.5	-42.2
						CHANNELS 3  Xrotation Yrotation Zrotation
						End Site
						{
							OFFSET	1	0	0
						}
					}
				}
			}
		}
	}
}
MOTION
Frames: 8
Frame Time: 0.02
1902.4 725.362 -504.266 165.16 -71.8668 167.601 -1.9575 -0.102384 -0.251835 -1.95747 -0.0861517 -0.25784 -1.95703 -0.0207916 -0.271056 -1.95713 -0.0633387 -0.26437 -14.6442 6.13371 1.46536 -14.7348 10.8432 3.3906 -0.0 0.0 -0.0 5.62622 23.811 10.4736 -6.02157 -15.9819 63.3602 0.721942 -19.6785 0.125212 -69.9572 -6.54056 5.30187 2.63125 6.25165 20.252 -0.0 0.0 -0.0 4.78379 15.292 -8.36128 -4.3544 8.77887 -70.331 1.99207 44.6147 -0.817375 82.8748 4.17391 8.76344 0.872728 -24.2825 -14.7646 0.0 0.0 0.0 9.58464 48.3108 -20.9427 -10.9769 0.294048 1.65636 20.3329 -20.2398 -3.11874 -13.8955 0.0 0.0 -0.0 0.0 -0.0 3.68667 28.6303 -6.67511 -7.28734 -0.230729 -1.09384 27.9201 0.624082 3.6889 -14.0671 0.0 0.0 0.0 0.0 0.0 
1908.72 725.081 -505.731 164.948 -72.1344 167.542 -1.66422 -0.013481 -0.414916 -1.66413 0.0129483 -0.414933 -1.66414 0.11153 -0.399873 -1.66436 0.046978 -0.412468 -14.9225 5.42549 1.02381 -15.0008 9.76574 2.76401 -0.0 0.0 -0.0 5.42618 24.4092 10.1629 -5.19004 -16.8121 63.5313 0.868547 -23.2797 0.17892 -70.1718 -6.56795 5.30377 2.45822 7.50007 19.4933 -0.0 0.0 -0.0 4.62707 14.7491 -8.06949 -4.73202 8.07273 -70.4719 1.85625 42.5953 -0.723688 82.924 4.17972 8.76593 0.809231 -23.0576 -13.9938 0.0 0.0 0.0 9.59655 49.0682 -20.8528 -10.6135 0.289421 1.60079 19.8254 -21.5191 -3.08557 -13.2752 0.0 0.0 -0.0 0.0 -0.0 3.2782 28.8406 -6.5262 -7.23363 -0.22954 -1.08568 27.5383 0.7123 3.64717 -14.2956 0.0 0.0 0.0 0.0 0.0 
1916.14 724.506 -504.642 165.508 -72.1393 168.102 -1.48322 0.0323056 -0.557197 -1.48305 0.0676955 -0.554013 -1.4836 0.196224 -0.522503 -1.48396 0.111243 -0.546935 -14.8303 4.96033 1.51819 -14.8854 8.57758 3.0669 -0.0 0.0 -0.0 5.28923 24.924 9.94875 -5.41485 -17.0495 63.2733 1.04414 -27.3491 0.25405 -70.2042 -6.57208 5.30404 1.96264 8.24239 16.3639 -0.0 0.0 -0.0 4.35929 12.808 -7.64997 -4.70424 6.75539 -70.7683 1.77664 41.347 -0.670443 83.4173 4.23803 8.79055 0.907504 -21.8167 -14.18 0.0 0.0 0.0 9.89713 50.0486 -20.9466 -10.3499 0.285844 1.56049 20.1441 -21.3303 -3.12414 -12.0359 0.0 0.0 -0.0 0.0 -0.0 2.81104 28.777 -6.39 -7.25691 -0.230057 -1.08922 29.6073 0.660911 3.87335 -14.664 0.0 0.0 0.0 0.0 0.0 
1923.68 724.793 -503.392 164.289 -72.2062 166.996 -1.67225 -0.0269114 -0.683574 -1.67199 0.0166397 -0.683901 -1.67197 0.179355 -0.660175 -1.67257 0.0728439 -0.680214 -15.6175 4.32851 1.08442 -15.6683 7.65758 2.50247 -0.0 0.0 -0.0 5.1635 24.4278 9.80028 -4.79389 -17.6795 63.5022 1.12386 -29.1049 0.291756 -68.4944 -6.35403 5.2862 2.02864 7.23711 16.4487 -0.0 0.0 -0.0 4.13925 12.6318 -7.19964 -5.07804 6.51422 -70.7048 1.73623 40.6945 -0.643922 83.2485 4.21806 8.78218 1.02071 -20.513 -14.4438 0.0 0.0 0.0 10.0221 51.8264 -21.33 -9.82669 0.278197 1.48058 20.572 -23.2507 -3.24328 -11.1974 0.0 0.0 -0.0 0.0 -0.0 2.52596 26.4131 -7.09523 -7.65846 -0.238736 -1.15023 29.009 -0.588167 3.79958 -14.442 0.0 0.0 0.0 0.0 0.0 
1930.86 727.701 -501.733 163.465 -73.0161 166.256 -1.72886 -0.0509805 -0.850966 -1.72846 0.00327003 -0.852486 -1.72816 0.207415 -0.826876 -1.7291 0.0742268 -0.849255 -15.7242 3.74158 1.36407 -15.7567 6.37433 2.56943 -0.0 0.0 -0.0 5.24915 24.3268 9.92288 -4.21798 -17.6119 63.7073 1.29458 -32.6704 0.37944 -68.4314 -6.34601 5.28542 1.58237 7.71868 13.6131 -0.0 0.0 -0.0 3.86277 12.2811 -6.64533 -5.07653 5.74152 -71.034 1.66775 39.5588 -0.599788 82.778 4.16249 8.75854 1.0732 -19.9997 -14.5988 0.0 0.0 0.0 9.88247 50.4026 -21.5096 -10.0887 0.282118 1.52059 17.9522 -22.7289 -2.85568 -10.016 0.0 0.0 -0.0 0.0 -0.0 2.42798 26.0526 -7.52856 -8.3607 -0.252885 -1.25706 29.0078 -0.505653 3.8 -15.0201 0.0 0.0 0.0 0.0 0.0 
1933.72 722.169 -499.889 162.297 -73.5643 165.036 -1.78464 -0.0511713 -0.917612 -1.78417 0.00731997 -0.919008 -1.78388 0.228153 -0.89027 -1.78498 0.0846946 -0.915127 -17.3487 4.04749 3.64572 -17.3466 5.75915 4.90911 -0.0 0.0 -0.0 5.2295 23.9196 9.91448 -3.85841 -18.2093 63.7555 1.48975 -36.4242 0.490178 -68.1147 -6.30568 5.28136 0.915007 6.47703 8.70674 -0.0 0.0 -0.0 3.50562 10.4963 -6.03866 -4.88831 4.66378 -70.9454 1.73036 40.5987 -0.640099 82.7134 4.15488 8.75526 1.38308 -19.8264 -16.4687 0.0 0.0 0.0 9.55798 50.8707 -21.1782 -8.63193 0.257999 1.29836 19.595 -20.8056 -3.0332 -7.59129 0.0 0.0 -0.0 0.0 -0.0 2.07295 24.3271 -7.56133 -8.87091 -0.262344 -1.33478 32.6149 -1.53473 4.17283 -14.843 0.0 0.0 0.0 0.0 0.0 
1939.25 721.05 -501.109 161.744 -74.2486 164.522 -1.72444 -0.120707 -0.9399 -1.72395 -0.0606571 -0.945676 -1.72248 0.167579 -0.932685 -1.72369 0.0181828 -0.947444 -16.7508 3.2111 3.01352 -16.7452 4.46397 3.98125 -0.0 0.0 -0.0 5.40463 23.5396 10.1773 -3.25281 -18.9991 63.1966 1.51361 -36.8601 0.50442 -67.798 -6.26538 5.27706 0.768545 6.37102 7.69868 -0.0 0.0 -0.0 3.19293 10.358 -5.3997 -4.11754 3.4412 -71.1653 1.58914 38.2074 -0.550435 83.0469 4.19423 8.77211 1.36357 -19.8914 -16.3672 0.0 0.0 0.0 10.2133 51.979 -21.4944 -8.95507 0.263837 1.34761 20.3488 -22.0449 -3.1739 -7.47211 0.0 0.0 -0.0 0.0 -0.0 1.83046 22.3385 -7.39506 -9.21326 -0.268302 -1.38697 32.8608 -2.30945 4.1939 -15.2114 0.0 0.0 0.0 0.0 0.0 
1946.93 717.658 -499.608 161.548 -74.1042 164.368 -1.72776 -0.171856 -1.03821 -1.72717 -0.105447 -1.04704 -1.72464 0.148404 -1.04182 -1.72615 -0.0179852 -1.05219 -16.8297 3.74854 3.48508 -16.8232 5.23572 4.62061 -0.0 0.0 -0.0 5.67085 23.0653 10.5785 -2.82322 -18.9853 63.3685 1.60307 -38.4508 0.559078 -67.1824 -6.18707 5.26808 -0.0769167 4.10644 1.21327 -0.0 0.0 -0.0 3.38721 10.0118 -5.83084 -3.15228 0.996534 -70.3205 1.54862 37.4908 -0.525576 83.6942 4.27086 8.80415 1.72876 -19.7371 -18.6194 0.0 0.0 0.0 10.864 53.471 -22.1956 -8.56925 0.256835 1.28882 22.9281 -20.8934 -3.48611 -6.82651 0.0 0.0 -0.0 0.0 -0.0 1.38982 19.6473 -7.55692 -9.68093 -0.275936 -1.45833 36.8854 -1.10396 4.59033 -17.1003 0.0 0.0 0.0 0.0 0.0 
